<svg data-v-423bf9ae="" xmlns="http://www.w3.org/2000/svg" viewBox="0 0 400 90" class="iconLeft"><!----><!----><!----><g data-v-423bf9ae="" id="68d1dd97-6cd0-47fd-91b8-672938722468" fill="white" transform="matrix(5.808325290679932,0,0,5.808325290679932,111.82988739013672,-6.084221363067627)"><path d="M5.47 13.96C6.29 13.96 7.06 13.75 7.67 13.54L7.36 12.38C6.93 12.54 6.44 12.67 5.85 12.67C4.69 12.67 4.27 12.11 4.27 10.92L4.27 7.91L7.41 7.91L7.41 6.64L4.27 6.64L4.27 3.77L2.73 4.54L2.73 6.64L0.83 6.64L0.83 7.91L2.66 7.91L2.66 10.92C2.66 12.73 3.37 13.96 5.47 13.96ZM10.23 13.78L11.84 13.78L11.84 9.79C12.54 8.40 13.47 7.88 14.41 7.88C14.94 7.88 15.20 7.95 15.65 8.11L16.00 6.75C15.58 6.55 15.22 6.45 14.66 6.45C13.47 6.45 12.43 7.11 11.73 8.27L11.69 8.27L11.55 6.64L10.23 6.64ZM20.09 13.96C21.03 13.96 21.94 13.45 22.67 12.88L22.72 12.88L22.85 13.78L24.15 13.78L24.15 9.52C24.15 7.56 23.11 6.45 21.21 6.45C20.02 6.45 18.96 6.94 18.35 7.46L18.94 8.53C19.43 8.12 20.13 7.76 20.90 7.76C22.04 7.76 22.50 8.39 22.55 9.21C19.15 9.48 17.79 10.26 17.79 11.87C17.79 13.10 18.76 13.96 20.09 13.96ZM20.58 12.68C19.89 12.68 19.35 12.40 19.35 11.75C19.35 10.95 20.08 10.40 22.55 10.22L22.55 11.79C21.92 12.35 21.27 12.68 20.58 12.68ZM28.52 13.78L30.35 13.78L33.03 6.64L31.49 6.64L30.16 10.39C29.90 11.10 29.71 11.83 29.48 12.53L29.43 12.53C29.20 11.83 28.98 11.10 28.73 10.39L27.40 6.64L25.77 6.64ZM38.22 13.96C39.23 13.96 40.18 13.59 40.91 13.12L40.36 12.11C39.75 12.49 39.14 12.70 38.43 12.70C37.18 12.70 36.22 11.96 36.12 10.64L41.12 10.64C41.15 10.46 41.19 10.15 41.19 9.84C41.19 7.87 40.05 6.45 38.01 6.45C36.20 6.45 34.47 7.88 34.47 10.21C34.47 12.56 36.13 13.96 38.22 13.96ZM36.11 9.53C36.29 8.34 37.11 7.70 38.04 7.70C39.13 7.70 39.72 8.39 39.72 9.53ZM47.61 13.96C48.41 13.96 48.90 13.78 49.57 13.54L49.20 12.35C48.72 12.56 48.36 12.64 48.01 12.64C47.31 12.64 46.77 12.26 46.77 11.30L46.77 3.63L43.01 3.63L43.01 4.90L45.18 4.90L45.18 11.20C45.18 12.95 46.02 13.96 47.61 13.96Z"></path></g><!----><g data-v-423bf9ae="" id="bac88880-20ba-4ada-add4-e1bd256710e2" transform="matrix(3.020336866378784,0,0,3.020336866378784,0.6746101379394531,-6.446761131286621)" stroke="none" fill="white"><circle cx="25.044" cy="25.043" r="6.956"></circle><circle cx="6.956" cy="25.043" r="6.956"></circle><path d="M.172 2.201H13.74v13.568H.172zM18.432 2.201H32v13.568H18.432z"></path></g><!----></svg>